<svg width="24" height="24" viewBox="0 0 24 24" fill="none" xmlns="http://www.w3.org/2000/svg">
<path d="M3.35212 2.67432L10.8474 8.24117L9.46135 4.9568L3.35212 2.67432Z" fill="#E2761B" stroke="#E2761B" stroke-linecap="round" stroke-linejoin="round"/>
<path d="M20.6553 2.67432L13.2203 8.2939L14.5386 4.9568L20.6553 2.67432ZM6.04893 15.5783L8.04516 18.6367L3.77397 19.8118L2.5461 15.6461L6.04893 15.5783ZM21.4463 15.6461L20.226 19.8118L15.9548 18.6367L17.951 15.5783L21.4463 15.6461Z" fill="#E4761B" stroke="#E4761B" stroke-linecap="round" stroke-linejoin="round"/>
<path d="M16.1959 10.4105L17.3861 12.2109L13.1451 12.3992L13.2957 7.84179L16.1959 10.4105ZM7.81172 10.4105L10.7496 7.78906L10.8475 12.3992L6.61398 12.2109L7.81172 10.4105ZM15.9548 18.6365L13.4087 17.3936L15.6083 15.6761L15.9548 18.6365ZM10.5989 17.3936L8.04524 18.6365L8.39929 15.6761L10.5989 17.3936Z" fill="#E4761B" stroke="#E4761B" stroke-linecap="round" stroke-linejoin="round"/>
<path d="M8.04523 18.6365L10.5989 17.3936L10.3955 19.0583L10.4181 19.7589L8.04523 18.6365ZM15.9548 18.6365L13.582 19.7589L13.597 19.0583L13.4087 17.3936L15.9548 18.6365Z" fill="#D7C1B3" stroke="#D7C1B3" stroke-linecap="round" stroke-linejoin="round"/>
<path d="M15.9548 18.6365L15.5932 15.5782L17.951 15.646L15.9548 18.6365ZM8.40679 15.5782L8.04521 18.6365L6.04898 15.646L8.40679 15.5782ZM6.61395 12.2109L10.8475 12.3993L10.4558 14.5763L9.83052 13.2656L8.32393 13.951L6.61395 12.2109ZM15.6686 13.951L14.162 13.2656L13.5443 14.5763L13.145 12.3993L17.3861 12.2109L15.6686 13.951Z" fill="#CD6116" stroke="#CD6116" stroke-linecap="round" stroke-linejoin="round"/>
<path d="M13.5443 14.5764L15.6686 13.9511L14.1695 13.2656L13.5443 14.5764ZM10.4633 14.5764L9.83807 13.2656L8.33148 13.9511L10.4633 14.5764Z" fill="#233447" stroke="#233447" stroke-linecap="round" stroke-linejoin="round"/>
<path d="M17.3861 12.2109L15.6083 15.6761L15.6686 13.951L17.3861 12.2109ZM8.32396 13.951L8.39929 15.6761L6.61398 12.2109L8.32396 13.951ZM13.1451 12.3993L13.5443 14.5763L13.0471 17.145L12.9341 13.7627L13.1451 12.3993ZM10.8475 12.3993L11.0509 13.7552L10.9605 17.145L10.4558 14.5763L10.8475 12.3993Z" fill="#E4751F" stroke="#E4751F" stroke-linecap="round" stroke-linejoin="round"/>
<path d="M10.4558 14.5762L10.9605 17.1449L10.5989 17.3935L8.39927 15.676L8.32395 13.9509L10.4558 14.5762ZM15.6686 13.9509L15.6083 15.676L13.4087 17.3935L13.0471 17.1449L13.5443 14.5762L15.6686 13.9509Z" fill="#F6851B" stroke="#F6851B" stroke-linecap="round" stroke-linejoin="round"/>
<path d="M10.4181 19.7589L10.3955 19.0583L10.5838 18.8926H13.4238L13.597 19.0583L13.582 19.7589L15.9548 18.6365L15.1262 19.3144L13.4464 20.482H10.5612L8.87386 19.3144L8.04523 18.6365L10.4181 19.7589Z" fill="#C0AD9E" stroke="#C0AD9E" stroke-linecap="round" stroke-linejoin="round"/>
<path d="M10.5989 17.3936L10.9605 17.145H13.0471L13.4087 17.3936L13.597 19.0584L13.4238 18.8927H10.5839L10.3955 19.0584L10.5989 17.3936Z" fill="#161616" stroke="#161616" stroke-linecap="round" stroke-linejoin="round"/>
<path d="M3.03576 8.60275L2.39545 5.52931L3.35214 2.67432L10.5988 8.05285L7.81165 10.4107L3.87191 11.5632L2.99809 10.5463L3.37474 10.2751L2.7721 9.72516L3.23914 9.36358L2.63651 8.90407L3.03576 8.60275ZM21.6045 5.52931L20.9642 8.60275L21.371 8.90407L20.7683 9.36358L21.2278 9.72516L20.6252 10.2751L21.0019 10.5463L20.1356 11.5632L16.1958 10.4107L13.4086 8.05285L20.6553 2.67432L21.6045 5.52931Z" fill="#763D16" stroke="#763D16" stroke-linecap="round" stroke-linejoin="round"/>
<path d="M3.8719 11.5632L7.81164 10.4106L6.6139 12.211L8.39921 15.6762L6.04893 15.6461H2.5461L3.8719 11.5632ZM16.1958 10.4106L20.1356 11.5632L21.4463 15.6461H17.951L15.6082 15.6762L17.386 12.211L16.1958 10.4106ZM10.8474 12.3993L10.5988 8.05283L9.45382 4.95679H14.5386L13.4086 8.05283L13.145 12.3993L13.0546 13.7703L13.047 17.1451H10.9604L10.9453 13.7703L10.8474 12.3993Z" fill="#F6851B" stroke="#F6851B" stroke-linecap="round" stroke-linejoin="round"/>
</svg>
