<svg width="24" height="24" viewBox="0 0 24 24" fill="none" xmlns="http://www.w3.org/2000/svg">
<g clip-path="url(#clip0_849_15147)">
<path d="M12 24C18.6274 24 24 18.6274 24 12C24 5.37258 18.6274 0 12 0C5.37258 0 0 5.37258 0 12C0 18.6274 5.37258 24 12 24Z" fill="#03A9F4"/>
<path d="M19.7731 7.17951C19.1885 7.43487 18.57 7.60451 17.9368 7.6832C18.6043 7.28741 19.1032 6.66038 19.3389 5.92109C18.7142 6.29188 18.0307 6.55302 17.3179 6.6932C16.8811 6.22606 16.3138 5.90118 15.6899 5.76081C15.066 5.62044 14.4142 5.67106 13.8194 5.90611C13.2247 6.14116 12.7144 6.54975 12.355 7.07873C11.9956 7.60771 11.8037 8.23261 11.8042 8.87214C11.802 9.11625 11.8268 9.35985 11.8784 9.59846C10.6105 9.53618 9.36993 9.20712 8.23783 8.63277C7.10572 8.05842 6.10752 7.2517 5.30841 6.2653C4.89766 6.967 4.77041 7.79908 4.95266 8.59146C5.13491 9.38385 5.6129 10.0767 6.28894 10.5285C5.78434 10.5149 5.29043 10.38 4.84894 10.1353V10.17C4.85036 10.9056 5.10494 11.6182 5.5699 12.1881C6.03486 12.758 6.68184 13.1505 7.40209 13.2995C7.12952 13.3711 6.84864 13.4062 6.56683 13.4037C6.36391 13.4075 6.16118 13.3895 5.96209 13.35C6.16844 13.9826 6.56571 14.5357 7.09926 14.9332C7.6328 15.3308 8.27641 15.5532 8.94157 15.57C7.81439 16.4511 6.42484 16.9296 4.9942 16.9295C4.73929 16.9317 4.48452 16.9169 4.23157 16.8853C5.69031 17.8258 7.39066 18.3228 9.1263 18.3158C14.9921 18.3158 18.1989 13.4574 18.1989 9.24635C18.1989 9.10583 18.1989 8.97004 18.1879 8.83425C18.8124 8.38352 19.3496 7.82279 19.7731 7.17951Z" fill="white"/>
</g>
<defs>
<clipPath id="clip0_849_15147">
<rect width="24" height="24" fill="white"/>
</clipPath>
</defs>
</svg>
